<?xml version="1.0" encoding="UTF-8" standalone="no"?>
<!DOCTYPE svg PUBLIC "-//W3C//DTD SVG 1.1//EN"
 "http://www.w3.org/Graphics/SVG/1.1/DTD/svg11.dtd">
<!-- Generated by graphviz version 2.36.0 (20140111.2315)
 -->
<!-- Title: G Pages: 1 -->
<svg width="1096pt" height="1814pt"
 viewBox="0.00 0.00 1096.00 1814.00" xmlns="http://www.w3.org/2000/svg" xmlns:xlink="http://www.w3.org/1999/xlink">
<g id="graph0" class="graph" transform="scale(1 1) rotate(0) translate(4 1810)">
<title>G</title>
<polygon fill="white" stroke="none" points="-4,4 -4,-1810 1092,-1810 1092,4 -4,4"/>
<g id="clust1" class="cluster"><title>cluster_Global</title>
<path fill="none" stroke="gray" d="M487,-584C487,-584 1068,-584 1068,-584 1074,-584 1080,-590 1080,-596 1080,-596 1080,-1786 1080,-1786 1080,-1792 1074,-1798 1068,-1798 1068,-1798 487,-1798 487,-1798 481,-1798 475,-1792 475,-1786 475,-1786 475,-596 475,-596 475,-590 481,-584 487,-584"/>
<text text-anchor="middle" x="777.5" y="-1785.2" font-family="Times,serif" font-size="11.00" fill="gray">Global</text>
</g>
<g id="clust2" class="cluster"><title>cluster_\App</title>
<path fill="none" stroke="gray" d="M495,-592C495,-592 1060,-592 1060,-592 1066,-592 1072,-598 1072,-604 1072,-604 1072,-1758 1072,-1758 1072,-1764 1066,-1770 1060,-1770 1060,-1770 495,-1770 495,-1770 489,-1770 483,-1764 483,-1758 483,-1758 483,-604 483,-604 483,-598 489,-592 495,-592"/>
<text text-anchor="middle" x="777.5" y="-1757.2" font-family="Times,serif" font-size="11.00" fill="gray">App</text>
</g>
<g id="clust3" class="cluster"><title>cluster_\App\Exceptions</title>
<path fill="none" stroke="gray" d="M922,-1022C922,-1022 978,-1022 978,-1022 984,-1022 990,-1028 990,-1034 990,-1034 990,-1082 990,-1082 990,-1088 984,-1094 978,-1094 978,-1094 922,-1094 922,-1094 916,-1094 910,-1088 910,-1082 910,-1082 910,-1034 910,-1034 910,-1028 916,-1022 922,-1022"/>
<text text-anchor="middle" x="950" y="-1081.2" font-family="Times,serif" font-size="11.00" fill="gray">Exceptions</text>
</g>
<g id="clust4" class="cluster"><title>cluster_\App\Providers</title>
<path fill="none" stroke="gray" d="M864,-726C864,-726 1036,-726 1036,-726 1042,-726 1048,-732 1048,-738 1048,-738 1048,-1002 1048,-1002 1048,-1008 1042,-1014 1036,-1014 1036,-1014 864,-1014 864,-1014 858,-1014 852,-1008 852,-1002 852,-1002 852,-738 852,-738 852,-732 858,-726 864,-726"/>
<text text-anchor="middle" x="950" y="-1001.2" font-family="Times,serif" font-size="11.00" fill="gray">Providers</text>
</g>
<g id="clust5" class="cluster"><title>cluster_\App\Console</title>
<path fill="none" stroke="gray" d="M925,-646C925,-646 975,-646 975,-646 981,-646 987,-652 987,-658 987,-658 987,-706 987,-706 987,-712 981,-718 975,-718 975,-718 925,-718 925,-718 919,-718 913,-712 913,-706 913,-706 913,-658 913,-658 913,-652 919,-646 925,-646"/>
<text text-anchor="middle" x="950" y="-705.2" font-family="Times,serif" font-size="11.00" fill="gray">Console</text>
</g>
<g id="clust6" class="cluster"><title>cluster_\App\Http</title>
<path fill="none" stroke="gray" d="M503,-1102C503,-1102 1052,-1102 1052,-1102 1058,-1102 1064,-1108 1064,-1114 1064,-1114 1064,-1730 1064,-1730 1064,-1736 1058,-1742 1052,-1742 1052,-1742 503,-1742 503,-1742 497,-1742 491,-1736 491,-1730 491,-1730 491,-1114 491,-1114 491,-1108 497,-1102 503,-1102"/>
<text text-anchor="middle" x="777.5" y="-1729.2" font-family="Times,serif" font-size="11.00" fill="gray">Http</text>
</g>
<g id="clust7" class="cluster"><title>cluster_\App\Http\Controllers</title>
<path fill="none" stroke="gray" d="M511,-1398C511,-1398 1044,-1398 1044,-1398 1050,-1398 1056,-1404 1056,-1410 1056,-1410 1056,-1702 1056,-1702 1056,-1708 1050,-1714 1044,-1714 1044,-1714 511,-1714 511,-1714 505,-1714 499,-1708 499,-1702 499,-1702 499,-1410 499,-1410 499,-1404 505,-1398 511,-1398"/>
<text text-anchor="middle" x="777.5" y="-1701.2" font-family="Times,serif" font-size="11.00" fill="gray">Controllers</text>
</g>
<g id="clust8" class="cluster"><title>cluster_\App\Http\Controllers\Auth</title>
<path fill="none" stroke="gray" d="M864,-1452C864,-1452 1036,-1452 1036,-1452 1042,-1452 1048,-1458 1048,-1464 1048,-1464 1048,-1674 1048,-1674 1048,-1680 1042,-1686 1036,-1686 1036,-1686 864,-1686 864,-1686 858,-1686 852,-1680 852,-1674 852,-1674 852,-1464 852,-1464 852,-1458 858,-1452 864,-1452"/>
<text text-anchor="middle" x="950" y="-1673.2" font-family="Times,serif" font-size="11.00" fill="gray">Auth</text>
</g>
<g id="clust9" class="cluster"><title>cluster_\App\Http\Middleware</title>
<path fill="none" stroke="gray" d="M868,-1156C868,-1156 1032,-1156 1032,-1156 1038,-1156 1044,-1162 1044,-1168 1044,-1168 1044,-1378 1044,-1378 1044,-1384 1038,-1390 1032,-1390 1032,-1390 868,-1390 868,-1390 862,-1390 856,-1384 856,-1378 856,-1378 856,-1168 856,-1168 856,-1162 862,-1156 868,-1156"/>
<text text-anchor="middle" x="950" y="-1377.2" font-family="Times,serif" font-size="11.00" fill="gray">Middleware</text>
</g>
<!-- \\App\\Exceptions\\Handler -->
<g id="node1" class="node"><title>\\App\\Exceptions\\Handler</title>
<polygon fill="none" stroke="black" points="982,-1066 918,-1066 918,-1030 982,-1030 982,-1066"/>
<text text-anchor="middle" x="950" y="-1045.2" font-family="Courier,monospace" font-size="11.00">Handler</text>
</g>
<!-- \\Illuminate\\Foundation\\Exceptions\\Handler -->
<g id="node20" class="node"><title>\\Illuminate\\Foundation\\Exceptions\\Handler</title>
<ellipse fill="none" stroke="black" cx="549" cy="-342" rx="164.371" ry="18"/>
<text text-anchor="middle" x="549" y="-338.3" font-family="Times,serif" font-size="14.00" fill="gray">\Illuminate\Foundation\Exceptions\Handler</text>
</g>
<!-- \\App\\Exceptions\\Handler&#45;&gt;\\Illuminate\\Foundation\\Exceptions\\Handler -->
<g id="edge1" class="edge"><title>\\App\\Exceptions\\Handler&#45;&gt;\\Illuminate\\Foundation\\Exceptions\\Handler</title>
<path fill="none" stroke="black" d="M917.842,-1046.99C895.942,-1044.5 867.828,-1037.39 852,-1018 760.36,-905.731 889.721,-472.224 788,-369 753.12,-333.605 698.944,-325.371 651.086,-326.653"/>
<polygon fill="none" stroke="black" points="650.828,-323.161 640.979,-327.065 651.114,-330.155 650.828,-323.161"/>
</g>
<!-- \\App\\Providers\\AuthServiceProvider -->
<g id="node2" class="node"><title>\\App\\Providers\\AuthServiceProvider</title>
<polygon fill="none" stroke="black" points="1022.5,-986 877.5,-986 877.5,-950 1022.5,-950 1022.5,-986"/>
<text text-anchor="middle" x="950" y="-965.2" font-family="Courier,monospace" font-size="11.00">AuthServiceProvider</text>
</g>
<!-- \\Illuminate\\Foundation\\Support\\Providers\\AuthServiceProvider -->
<g id="node21" class="node"><title>\\Illuminate\\Foundation\\Support\\Providers\\AuthServiceProvider</title>
<ellipse fill="none" stroke="black" cx="549" cy="-288" rx="235.058" ry="18"/>
<text text-anchor="middle" x="549" y="-284.3" font-family="Times,serif" font-size="14.00" fill="gray">\Illuminate\Foundation\Support\Providers\AuthServiceProvider</text>
</g>
<!-- \\App\\Providers\\AuthServiceProvider&#45;&gt;\\Illuminate\\Foundation\\Support\\Providers\\AuthServiceProvider -->
<g id="edge2" class="edge"><title>\\App\\Providers\\AuthServiceProvider&#45;&gt;\\Illuminate\\Foundation\\Support\\Providers\\AuthServiceProvider</title>
<path fill="none" stroke="black" d="M877.378,-958.854C867.682,-954.76 858.762,-949.018 852,-941 761.851,-834.101 886.33,-414.425 788,-315 782.892,-309.835 777.373,-305.249 771.522,-301.188"/>
<polygon fill="none" stroke="black" points="773.042,-298.007 762.723,-295.605 769.292,-303.918 773.042,-298.007"/>
</g>
<!-- \\App\\Providers\\AppServiceProvider -->
<g id="node3" class="node"><title>\\App\\Providers\\AppServiceProvider</title>
<polygon fill="none" stroke="black" points="1019,-932 881,-932 881,-896 1019,-896 1019,-932"/>
<text text-anchor="middle" x="950" y="-911.2" font-family="Courier,monospace" font-size="11.00">AppServiceProvider</text>
</g>
<!-- \\Illuminate\\Support\\ServiceProvider -->
<g id="node24" class="node"><title>\\Illuminate\\Support\\ServiceProvider</title>
<ellipse fill="none" stroke="black" cx="549" cy="-234" rx="139.175" ry="18"/>
<text text-anchor="middle" x="549" y="-230.3" font-family="Times,serif" font-size="14.00" fill="gray">\Illuminate\Support\ServiceProvider</text>
</g>
<!-- \\App\\Providers\\AppServiceProvider&#45;&gt;\\Illuminate\\Support\\ServiceProvider -->
<g id="edge5" class="edge"><title>\\App\\Providers\\AppServiceProvider&#45;&gt;\\Illuminate\\Support\\ServiceProvider</title>
<path fill="none" stroke="black" d="M880.801,-906.22C869.793,-902.069 859.55,-895.953 852,-887 761.851,-780.101 886.33,-360.425 788,-261 751.137,-223.726 692.865,-216.615 643.209,-218.999"/>
<polygon fill="none" stroke="black" points="642.845,-215.515 633.078,-219.62 643.274,-222.502 642.845,-215.515"/>
</g>
<!-- \\App\\Providers\\BroadcastServiceProvider -->
<g id="node4" class="node"><title>\\App\\Providers\\BroadcastServiceProvider</title>
<polygon fill="none" stroke="black" points="1039.5,-878 860.5,-878 860.5,-842 1039.5,-842 1039.5,-878"/>
<text text-anchor="middle" x="950" y="-857.2" font-family="Courier,monospace" font-size="11.00">BroadcastServiceProvider</text>
</g>
<!-- \\App\\Providers\\BroadcastServiceProvider&#45;&gt;\\Illuminate\\Support\\ServiceProvider -->
<g id="edge11" class="edge"><title>\\App\\Providers\\BroadcastServiceProvider&#45;&gt;\\Illuminate\\Support\\ServiceProvider</title>
<path fill="none" stroke="black" d="M861.515,-841.85C858.038,-839.262 854.833,-836.327 852,-833 686.155,-638.235 968.745,-442.023 788,-261 751.166,-224.109 693.333,-216.874 643.901,-219.097"/>
<polygon fill="none" stroke="black" points="643.593,-215.609 633.813,-219.685 644,-222.597 643.593,-215.609"/>
</g>
<!-- \\App\\Providers\\RouteServiceProvider -->
<g id="node5" class="node"><title>\\App\\Providers\\RouteServiceProvider</title>
<polygon fill="none" stroke="black" points="1026,-824 874,-824 874,-788 1026,-788 1026,-824"/>
<text text-anchor="middle" x="950" y="-803.2" font-family="Courier,monospace" font-size="11.00">RouteServiceProvider</text>
</g>
<!-- \\Illuminate\\Foundation\\Support\\Providers\\RouteServiceProvider -->
<g id="node28" class="node"><title>\\Illuminate\\Foundation\\Support\\Providers\\RouteServiceProvider</title>
<ellipse fill="none" stroke="black" cx="549" cy="-180" rx="238.558" ry="18"/>
<text text-anchor="middle" x="549" y="-176.3" font-family="Times,serif" font-size="14.00" fill="gray">\Illuminate\Foundation\Support\Providers\RouteServiceProvider</text>
</g>
<!-- \\App\\Providers\\RouteServiceProvider&#45;&gt;\\Illuminate\\Foundation\\Support\\Providers\\RouteServiceProvider -->
<g id="edge12" class="edge"><title>\\App\\Providers\\RouteServiceProvider&#45;&gt;\\Illuminate\\Foundation\\Support\\Providers\\RouteServiceProvider</title>
<path fill="none" stroke="black" d="M873.607,-795.074C865.394,-791.144 857.893,-785.921 852,-779 686.155,-584.235 968.745,-388.023 788,-207 782.966,-201.958 777.54,-197.47 771.797,-193.485"/>
<polygon fill="none" stroke="black" points="773.481,-190.409 763.164,-187.999 769.727,-196.317 773.481,-190.409"/>
</g>
<!-- \\App\\Providers\\EventServiceProvider -->
<g id="node6" class="node"><title>\\App\\Providers\\EventServiceProvider</title>
<polygon fill="none" stroke="black" points="1026,-770 874,-770 874,-734 1026,-734 1026,-770"/>
<text text-anchor="middle" x="950" y="-749.2" font-family="Courier,monospace" font-size="11.00">EventServiceProvider</text>
</g>
<!-- \\Illuminate\\Foundation\\Support\\Providers\\EventServiceProvider -->
<g id="node29" class="node"><title>\\Illuminate\\Foundation\\Support\\Providers\\EventServiceProvider</title>
<ellipse fill="none" stroke="black" cx="549" cy="-126" rx="237.758" ry="18"/>
<text text-anchor="middle" x="549" y="-122.3" font-family="Times,serif" font-size="14.00" fill="gray">\Illuminate\Foundation\Support\Providers\EventServiceProvider</text>
</g>
<!-- \\App\\Providers\\EventServiceProvider&#45;&gt;\\Illuminate\\Foundation\\Support\\Providers\\EventServiceProvider -->
<g id="edge14" class="edge"><title>\\App\\Providers\\EventServiceProvider&#45;&gt;\\Illuminate\\Foundation\\Support\\Providers\\EventServiceProvider</title>
<path fill="none" stroke="black" d="M873.989,-738.901C865.605,-734.7 857.957,-729.197 852,-722 689.732,-525.962 967.861,-333.033 788,-153 782.965,-147.96 777.537,-143.473 771.793,-139.489"/>
<polygon fill="none" stroke="black" points="773.476,-136.412 763.158,-134.005 769.723,-142.321 773.476,-136.412"/>
</g>
<!-- \\App\\Console\\Kernel -->
<g id="node7" class="node"><title>\\App\\Console\\Kernel</title>
<polygon fill="none" stroke="black" points="978.5,-690 921.5,-690 921.5,-654 978.5,-654 978.5,-690"/>
<text text-anchor="middle" x="950" y="-669.2" font-family="Courier,monospace" font-size="11.00">Kernel</text>
</g>
<!-- \\Illuminate\\Foundation\\Console\\Kernel -->
<g id="node22" class="node"><title>\\Illuminate\\Foundation\\Console\\Kernel</title>
<ellipse fill="none" stroke="black" cx="549" cy="-72" rx="149.473" ry="18"/>
<text text-anchor="middle" x="549" y="-68.3" font-family="Times,serif" font-size="14.00" fill="gray">\Illuminate\Foundation\Console\Kernel</text>
</g>
<!-- \\App\\Console\\Kernel&#45;&gt;\\Illuminate\\Foundation\\Console\\Kernel -->
<g id="edge3" class="edge"><title>\\App\\Console\\Kernel&#45;&gt;\\Illuminate\\Foundation\\Console\\Kernel</title>
<path fill="none" stroke="black" d="M921.338,-673.716C899.23,-673.456 869.191,-669.144 852,-650 687.281,-466.568 962.56,-273.094 788,-99 752.059,-63.1545 696.28,-55.3543 647.755,-57.0039"/>
<polygon fill="none" stroke="black" points="647.341,-53.5196 637.52,-57.4927 647.675,-60.5116 647.341,-53.5196"/>
</g>
<!-- \\App\\Http\\Controllers\\Auth\\ResetPasswordController -->
<g id="node8" class="node"><title>\\App\\Http\\Controllers\\Auth\\ResetPasswordController</title>
<polygon fill="none" stroke="black" points="1036,-1658 864,-1658 864,-1622 1036,-1622 1036,-1658"/>
<text text-anchor="middle" x="950" y="-1637.2" font-family="Courier,monospace" font-size="11.00">ResetPasswordController</text>
</g>
<!-- \\App\\Http\\Controllers\\Controller -->
<g id="node12" class="node"><title>\\App\\Http\\Controllers\\Controller</title>
<polygon fill="none" stroke="black" points="591,-1550 507,-1550 507,-1514 591,-1514 591,-1550"/>
<text text-anchor="middle" x="549" y="-1529.2" font-family="Courier,monospace" font-size="11.00">Controller</text>
</g>
<!-- \\App\\Http\\Controllers\\Auth\\ResetPasswordController&#45;&gt;\\App\\Http\\Controllers\\Controller -->
<g id="edge6" class="edge"><title>\\App\\Http\\Controllers\\Auth\\ResetPasswordController&#45;&gt;\\App\\Http\\Controllers\\Controller</title>
<path fill="none" stroke="black" d="M882.216,-1621.92C802.867,-1600.45 672.253,-1565.09 600.724,-1545.73"/>
<polygon fill="none" stroke="black" points="601.602,-1542.34 591.035,-1543.11 599.773,-1549.1 601.602,-1542.34"/>
</g>
<!-- \\App\\Http\\Controllers\\Auth\\RegisterController -->
<g id="node9" class="node"><title>\\App\\Http\\Controllers\\Auth\\RegisterController</title>
<polygon fill="none" stroke="black" points="1019,-1604 881,-1604 881,-1568 1019,-1568 1019,-1604"/>
<text text-anchor="middle" x="950" y="-1583.2" font-family="Courier,monospace" font-size="11.00">RegisterController</text>
</g>
<!-- \\App\\Http\\Controllers\\Auth\\RegisterController&#45;&gt;\\App\\Http\\Controllers\\Controller -->
<g id="edge7" class="edge"><title>\\App\\Http\\Controllers\\Auth\\RegisterController&#45;&gt;\\App\\Http\\Controllers\\Controller</title>
<path fill="none" stroke="black" d="M880.863,-1576.78C801.521,-1566.04 672.279,-1548.55 601.08,-1538.91"/>
<polygon fill="none" stroke="black" points="601.389,-1535.42 591.009,-1537.55 600.45,-1542.36 601.389,-1535.42"/>
</g>
<!-- \\App\\Http\\Controllers\\Auth\\LoginController -->
<g id="node10" class="node"><title>\\App\\Http\\Controllers\\Auth\\LoginController</title>
<polygon fill="none" stroke="black" points="1009,-1550 891,-1550 891,-1514 1009,-1514 1009,-1550"/>
<text text-anchor="middle" x="950" y="-1529.2" font-family="Courier,monospace" font-size="11.00">LoginController</text>
</g>
<!-- \\App\\Http\\Controllers\\Auth\\LoginController&#45;&gt;\\App\\Http\\Controllers\\Controller -->
<g id="edge13" class="edge"><title>\\App\\Http\\Controllers\\Auth\\LoginController&#45;&gt;\\App\\Http\\Controllers\\Controller</title>
<path fill="none" stroke="black" d="M890.982,-1532C812.953,-1532 675.43,-1532 601.109,-1532"/>
<polygon fill="none" stroke="black" points="601.055,-1528.5 591.055,-1532 601.054,-1535.5 601.055,-1528.5"/>
</g>
<!-- \\App\\Http\\Controllers\\Auth\\ForgotPasswordController -->
<g id="node11" class="node"><title>\\App\\Http\\Controllers\\Auth\\ForgotPasswordController</title>
<polygon fill="none" stroke="black" points="1039.5,-1496 860.5,-1496 860.5,-1460 1039.5,-1460 1039.5,-1496"/>
<text text-anchor="middle" x="950" y="-1475.2" font-family="Courier,monospace" font-size="11.00">ForgotPasswordController</text>
</g>
<!-- \\App\\Http\\Controllers\\Auth\\ForgotPasswordController&#45;&gt;\\App\\Http\\Controllers\\Controller -->
<g id="edge17" class="edge"><title>\\App\\Http\\Controllers\\Auth\\ForgotPasswordController&#45;&gt;\\App\\Http\\Controllers\\Controller</title>
<path fill="none" stroke="black" d="M860.449,-1489.98C780.796,-1500.76 666.545,-1516.23 601.157,-1525.08"/>
<polygon fill="none" stroke="black" points="600.535,-1521.63 591.095,-1526.44 601.474,-1528.57 600.535,-1521.63"/>
</g>
<!-- \\Illuminate\\Routing\\Controller -->
<g id="node25" class="node"><title>\\Illuminate\\Routing\\Controller</title>
<ellipse fill="none" stroke="black" cx="119" cy="-1532" rx="118.879" ry="18"/>
<text text-anchor="middle" x="119" y="-1528.3" font-family="Times,serif" font-size="14.00" fill="gray">\Illuminate\Routing\Controller</text>
</g>
<!-- \\App\\Http\\Controllers\\Controller&#45;&gt;\\Illuminate\\Routing\\Controller -->
<g id="edge8" class="edge"><title>\\App\\Http\\Controllers\\Controller&#45;&gt;\\Illuminate\\Routing\\Controller</title>
<path fill="none" stroke="black" d="M506.962,-1532C447.933,-1532 336.463,-1532 248.268,-1532"/>
<polygon fill="none" stroke="black" points="248.179,-1528.5 238.179,-1532 248.179,-1535.5 248.179,-1528.5"/>
</g>
<!-- \\App\\Http\\Controllers\\HomeController -->
<g id="node13" class="node"><title>\\App\\Http\\Controllers\\HomeController</title>
<polygon fill="none" stroke="black" points="1005.5,-1442 894.5,-1442 894.5,-1406 1005.5,-1406 1005.5,-1442"/>
<text text-anchor="middle" x="950" y="-1421.2" font-family="Courier,monospace" font-size="11.00">HomeController</text>
</g>
<!-- \\App\\Http\\Controllers\\HomeController&#45;&gt;\\App\\Http\\Controllers\\Controller -->
<g id="edge18" class="edge"><title>\\App\\Http\\Controllers\\HomeController&#45;&gt;\\App\\Http\\Controllers\\Controller</title>
<path fill="none" stroke="black" d="M894.295,-1437.24C880.474,-1440.67 865.675,-1444.41 852,-1448 763.683,-1471.2 661.399,-1500.08 601.398,-1517.22"/>
<polygon fill="none" stroke="black" points="600.072,-1513.96 591.42,-1520.07 601.997,-1520.69 600.072,-1513.96"/>
</g>
<!-- \\App\\Http\\Middleware\\RedirectIfAuthenticated -->
<g id="node14" class="node"><title>\\App\\Http\\Middleware\\RedirectIfAuthenticated</title>
<polygon fill="none" stroke="black" points="1036,-1362 864,-1362 864,-1326 1036,-1326 1036,-1362"/>
<text text-anchor="middle" x="950" y="-1341.2" font-family="Courier,monospace" font-size="11.00">RedirectIfAuthenticated</text>
</g>
<!-- \\App\\Http\\Middleware\\EncryptCookies -->
<g id="node15" class="node"><title>\\App\\Http\\Middleware\\EncryptCookies</title>
<polygon fill="none" stroke="black" points="1005.5,-1308 894.5,-1308 894.5,-1272 1005.5,-1272 1005.5,-1308"/>
<text text-anchor="middle" x="950" y="-1287.2" font-family="Courier,monospace" font-size="11.00">EncryptCookies</text>
</g>
<!-- \\Illuminate\\Cookie\\Middleware\\EncryptCookies -->
<g id="node27" class="node"><title>\\Illuminate\\Cookie\\Middleware\\EncryptCookies</title>
<ellipse fill="none" stroke="black" cx="549" cy="-558" rx="181.968" ry="18"/>
<text text-anchor="middle" x="549" y="-554.3" font-family="Times,serif" font-size="14.00" fill="gray">\Illuminate\Cookie\Middleware\EncryptCookies</text>
</g>
<!-- \\App\\Http\\Middleware\\EncryptCookies&#45;&gt;\\Illuminate\\Cookie\\Middleware\\EncryptCookies -->
<g id="edge10" class="edge"><title>\\App\\Http\\Middleware\\EncryptCookies&#45;&gt;\\Illuminate\\Cookie\\Middleware\\EncryptCookies</title>
<path fill="none" stroke="black" d="M894.473,-1283.73C879.344,-1279.77 863.84,-1273.36 852,-1263 632.777,-1071.2 567.693,-692.396 553.396,-586.242"/>
<polygon fill="none" stroke="black" points="556.826,-585.481 552.064,-576.016 549.885,-586.385 556.826,-585.481"/>
</g>
<!-- \\App\\Http\\Middleware\\VerifyCsrfToken -->
<g id="node16" class="node"><title>\\App\\Http\\Middleware\\VerifyCsrfToken</title>
<polygon fill="none" stroke="black" points="1009,-1254 891,-1254 891,-1218 1009,-1218 1009,-1254"/>
<text text-anchor="middle" x="950" y="-1233.2" font-family="Courier,monospace" font-size="11.00">VerifyCsrfToken</text>
</g>
<!-- \\Illuminate\\Foundation\\Http\\Middleware\\VerifyCsrfToken -->
<g id="node30" class="node"><title>\\Illuminate\\Foundation\\Http\\Middleware\\VerifyCsrfToken</title>
<ellipse fill="none" stroke="black" cx="549" cy="-504" rx="218.261" ry="18"/>
<text text-anchor="middle" x="549" y="-500.3" font-family="Times,serif" font-size="14.00" fill="gray">\Illuminate\Foundation\Http\Middleware\VerifyCsrfToken</text>
</g>
<!-- \\App\\Http\\Middleware\\VerifyCsrfToken&#45;&gt;\\Illuminate\\Foundation\\Http\\Middleware\\VerifyCsrfToken -->
<g id="edge15" class="edge"><title>\\App\\Http\\Middleware\\VerifyCsrfToken&#45;&gt;\\Illuminate\\Foundation\\Http\\Middleware\\VerifyCsrfToken</title>
<path fill="none" stroke="black" d="M890.753,-1231.49C876.088,-1227.52 861.759,-1220.66 852,-1209 754.887,-1092.93 893.998,-639.015 788,-531 781.72,-524.6 774.809,-519.087 767.418,-514.356"/>
<polygon fill="none" stroke="black" points="768.93,-511.185 758.531,-509.156 765.394,-517.227 768.93,-511.185"/>
</g>
<!-- \\App\\Http\\Middleware\\TrimStrings -->
<g id="node17" class="node"><title>\\App\\Http\\Middleware\\TrimStrings</title>
<polygon fill="none" stroke="black" points="995.5,-1200 904.5,-1200 904.5,-1164 995.5,-1164 995.5,-1200"/>
<text text-anchor="middle" x="950" y="-1179.2" font-family="Courier,monospace" font-size="11.00">TrimStrings</text>
</g>
<!-- \\Illuminate\\Foundation\\Http\\Middleware\\TrimStrings -->
<g id="node31" class="node"><title>\\Illuminate\\Foundation\\Http\\Middleware\\TrimStrings</title>
<ellipse fill="none" stroke="black" cx="549" cy="-450" rx="200.665" ry="18"/>
<text text-anchor="middle" x="549" y="-446.3" font-family="Times,serif" font-size="14.00" fill="gray">\Illuminate\Foundation\Http\Middleware\TrimStrings</text>
</g>
<!-- \\App\\Http\\Middleware\\TrimStrings&#45;&gt;\\Illuminate\\Foundation\\Http\\Middleware\\TrimStrings -->
<g id="edge16" class="edge"><title>\\App\\Http\\Middleware\\TrimStrings&#45;&gt;\\Illuminate\\Foundation\\Http\\Middleware\\TrimStrings</title>
<path fill="none" stroke="black" d="M904.066,-1182.8C885.283,-1180.67 864.875,-1174.66 852,-1160 751.413,-1045.45 894.735,-585.841 788,-477 779.356,-468.186 769.516,-461.053 758.874,-455.329"/>
<polygon fill="none" stroke="black" points="760.274,-452.117 749.755,-450.847 757.186,-458.399 760.274,-452.117"/>
</g>
<!-- \\App\\Http\\Kernel -->
<g id="node18" class="node"><title>\\App\\Http\\Kernel</title>
<polygon fill="none" stroke="black" points="978.5,-1146 921.5,-1146 921.5,-1110 978.5,-1110 978.5,-1146"/>
<text text-anchor="middle" x="950" y="-1125.2" font-family="Courier,monospace" font-size="11.00">Kernel</text>
</g>
<!-- \\Illuminate\\Foundation\\Http\\Kernel -->
<g id="node26" class="node"><title>\\Illuminate\\Foundation\\Http\\Kernel</title>
<ellipse fill="none" stroke="black" cx="549" cy="-396" rx="136.476" ry="18"/>
<text text-anchor="middle" x="549" y="-392.3" font-family="Times,serif" font-size="14.00" fill="gray">\Illuminate\Foundation\Http\Kernel</text>
</g>
<!-- \\App\\Http\\Kernel&#45;&gt;\\Illuminate\\Foundation\\Http\\Kernel -->
<g id="edge9" class="edge"><title>\\App\\Http\\Kernel&#45;&gt;\\Illuminate\\Foundation\\Http\\Kernel</title>
<path fill="none" stroke="black" d="M921.461,-1127.38C899.116,-1125.29 868.681,-1118.51 852,-1098 756.943,-981.096 893.555,-530.519 788,-423 750.933,-385.244 691.921,-378.349 641.934,-380.964"/>
<polygon fill="none" stroke="black" points="641.491,-377.486 631.741,-381.633 641.949,-384.471 641.491,-377.486"/>
</g>
<!-- \\App\\User -->
<g id="node19" class="node"><title>\\App\\User</title>
<polygon fill="none" stroke="black" points="977,-636 923,-636 923,-600 977,-600 977,-636"/>
<text text-anchor="middle" x="950" y="-615.2" font-family="Courier,monospace" font-size="11.00">User</text>
</g>
<!-- \\Illuminate\\Foundation\\Auth\\User -->
<g id="node23" class="node"><title>\\Illuminate\\Foundation\\Auth\\User</title>
<ellipse fill="none" stroke="black" cx="549" cy="-18" rx="131.077" ry="18"/>
<text text-anchor="middle" x="549" y="-14.3" font-family="Times,serif" font-size="14.00" fill="gray">\Illuminate\Foundation\Auth\User</text>
</g>
<!-- \\App\\User&#45;&gt;\\Illuminate\\Foundation\\Auth\\User -->
<g id="edge4" class="edge"><title>\\App\\User&#45;&gt;\\Illuminate\\Foundation\\Auth\\User</title>
<path fill="none" stroke="black" d="M946.63,-599.948C934.575,-511.026 877.132,-120.828 788,-45 751.484,-13.9342 699.587,-5.37348 653.57,-5.34808"/>
<polygon fill="none" stroke="black" points="653.498,-1.84861 643.543,-5.47483 653.587,-8.84805 653.498,-1.84861"/>
</g>
</g>
</svg>
